<svg width="13" height="13" viewBox="0 0 13 13" fill="none" xmlns="http://www.w3.org/2000/svg">
<path d="M11.3307 6.09025C11.3307 7.4801 10.7786 8.81303 9.7958 9.7958C8.81303 10.7786 7.4801 11.3307 6.09025 11.3307V12.1805C9.45377 12.1805 12.1805 9.45377 12.1805 6.09025H11.3307ZM6.09025 11.3307C4.7004 11.3307 3.36747 10.7786 2.38469 9.7958C1.40192 8.81303 0.849802 7.4801 0.849802 6.09025H0C0 9.45377 2.72673 12.1805 6.09025 12.1805V11.3307ZM0.849802 6.09025C0.849802 4.7004 1.40192 3.36747 2.38469 2.38469C3.36747 1.40192 4.7004 0.849802 6.09025 0.849802V0C2.72673 0 0 2.72673 0 6.09025H0.849802ZM8.07312 7.36495C7.20916 7.36495 6.38058 7.02174 5.76967 6.41083C5.15875 5.79992 4.81555 4.97134 4.81555 4.10738H3.96574C3.96574 5.19672 4.39848 6.24145 5.16877 7.01173C5.93905 7.78201 6.98378 8.21476 8.07312 8.21476V7.36495ZM10.8633 5.78942C10.5734 6.27021 10.1642 6.66792 9.67532 6.94397C9.18646 7.22002 8.63454 7.36503 8.07312 7.36495V8.21476C8.78094 8.21496 9.4768 8.03225 10.0932 7.68434C10.7096 7.33643 11.2257 6.83513 11.5913 6.22905L10.8633 5.78942ZM4.81555 4.10738C4.81547 3.54596 4.96048 2.99404 5.23653 2.50518C5.51258 2.01631 5.91029 1.60708 6.39108 1.31719L5.95145 0.589763C5.34546 0.955339 4.8442 1.47129 4.4963 2.0876C4.14839 2.70391 3.96563 3.39965 3.96574 4.10738H4.81555ZM6.09025 0.849802C6.06178 0.849255 6.0337 0.843064 6.00764 0.831589C5.98157 0.820114 5.95805 0.803582 5.93842 0.782951C5.91453 0.75896 5.89836 0.728383 5.89196 0.695138C5.8897 0.677576 5.89083 0.626587 5.95145 0.589763L6.39108 1.31719C6.67605 1.14497 6.76783 0.829407 6.7344 0.581265C6.69927 0.323491 6.49645 0 6.09025 0V0.849802ZM11.5913 6.22905C11.5539 6.28967 11.5029 6.2908 11.4854 6.28854C11.4521 6.28214 11.4215 6.26597 11.3975 6.24208C11.3769 6.22245 11.3604 6.19893 11.3489 6.17286C11.3374 6.1468 11.3312 6.11872 11.3307 6.09025H12.1805C12.1805 5.68404 11.857 5.48122 11.5992 5.4461C11.3511 5.41267 11.0355 5.50445 10.8633 5.78942L11.5913 6.22905Z" fill="#1E1E1E"/>
</svg>
